{"asset":{"version":"2.0","generator":"babylon.js glTF exporter for Autodesk MAYA 2022.5 v20240312.5"},"scene":0,"scenes":[{"nodes":[0,1,2]}],"nodes":[{"mesh":0,"translation":[0.0136111556,0.0,0.0],"name":"heli_body"},{"mesh":1,"translation":[-0.0008977812,0.02732251,0.0],"rotation":[0.0,-0.228176668,0.0,0.973619759],"scale":[18.1748943,0.146612957,0.7511547],"name":"heli_main_rotor"},{"mesh":2,"translation":[0.111148968,0.02353144,0.004112638],"rotation":[0.707106769,0.0,0.0,0.707106769],"scale":[3.91653752,0.10209959,0.3114749],"name":"heli_tail_rotor"}],"meshes":[{"primitives":[{"attributes":{"POSITION":1,"TANGENT":2,"NORMAL":3,"TEXCOORD_0":4},"indices":0,"material":0}],"name":"heli_body"},{"primitives":[{"attributes":{"POSITION":6,"TANGENT":7,"NORMAL":8,"TEXCOORD_0":9},"indices":5,"material":0}],"name":"heli_main_rotor"},{"primitives":[{"attributes":{"POSITION":11,"TANGENT":12,"NORMAL":13,"TEXCOORD_0":14},"indices":10,"material":0}],"name":"heli_tail_rotor"}],"accessors":[{"bufferView":0,"componentType":5123,"count":528,"type":"SCALAR","name":"accessorIndices"},{"bufferView":1,"componentType":5126,"count":288,"max":[0.100687571,0.027597202,0.01972817],"min":[-0.082986705,-0.0178677887,-0.01972817],"type":"VEC3","name":"accessorPositions"},{"bufferView":2,"componentType":5126,"count":288,"type":"VEC4","name":"accessorTangents"},{"bufferView":1,"byteOffset":3456,"componentType":5126,"count":288,"type":"VEC3","name":"accessorNormals"},{"bufferView":3,"componentType":5126,"count":288,"type":"VEC2","name":"accessorUVs"},{"bufferView":0,"byteOffset":1056,"componentType":5123,"count":108,"type":"SCALAR","name":"accessorIndices"},{"bufferView":1,"byteOffset":6912,"componentType":5126,"count":48,"max":[0.005,0.005,0.005],"min":[-0.005,-0.005,-0.005],"type":"VEC3","name":"accessorPositions"},{"bufferView":2,"byteOffset":4608,"componentType":5126,"count":48,"type":"VEC4","name":"accessorTangents"},{"bufferView":1,"byteOffset":7488,"componentType":5126,"count":48,"type":"VEC3","name":"accessorNormals"},{"bufferView":3,"byteOffset":2304,"componentType":5126,"count":48,"type":"VEC2","name":"accessorUVs"},{"bufferView":0,"byteOffset":1272,"componentType":5123,"count":108,"type":"SCALAR","name":"accessorIndices"},{"bufferView":1,"byteOffset":8064,"componentType":5126,"count":48,"max":[0.005,0.005,0.005],"min":[-0.005,-0.005,-0.005],"type":"VEC3","name":"accessorPositions"},{"bufferView":2,"byteOffset":5376,"componentType":5126,"count":48,"type":"VEC4","name":"accessorTangents"},{"bufferView":1,"byteOffset":8640,"componentType":5126,"count":48,"type":"VEC3","name":"accessorNormals"},{"bufferView":3,"byteOffset":2688,"componentType":5126,"count":48,"type":"VEC2","name":"accessorUVs"},{"bufferView":4,"componentType":5126,"count":2,"max":[8.291667],"min":[0.0],"type":"SCALAR","name":"accessorAnimationInput"},{"bufferView":5,"componentType":5126,"count":2,"type":"VEC3","name":"accessorAnimationScales"},{"bufferView":4,"byteOffset":8,"componentType":5126,"count":13,"max":[8.291667],"min":[0.0],"type":"SCALAR","name":"accessorAnimationInput"},{"bufferView":6,"componentType":5126,"count":13,"type":"VEC4","name":"accessorAnimationRotations"},{"bufferView":4,"byteOffset":60,"componentType":5126,"count":2,"max":[8.291667],"min":[0.0],"type":"SCALAR","name":"accessorAnimationInput"},{"bufferView":5,"byteOffset":24,"componentType":5126,"count":2,"type":"VEC3","name":"accessorAnimationPositions"}],"bufferViews":[{"buffer":0,"byteLength":1488,"name":"bufferViewScalar"},{"buffer":0,"byteOffset":1488,"byteLength":9216,"byteStride":12,"name":"bufferViewFloatVec3"},{"buffer":0,"byteOffset":10704,"byteLength":6144,"byteStride":16,"name":"bufferViewFloatVec4"},{"buffer":0,"byteOffset":16848,"byteLength":3072,"byteStride":8,"name":"bufferViewFloatVec2"},{"buffer":0,"byteOffset":19920,"byteLength":68,"name":"bufferViewAnimationFloatScalar"},{"buffer":0,"byteOffset":19988,"byteLength":48,"name":"bufferViewAnimationFloatVec3"},{"buffer":0,"byteOffset":20036,"byteLength":208,"name":"bufferViewAnimationFloatVec4"}],"buffers":[{"uri":"test.bin","byteLength":20244}],"materials":[{"pbrMetallicRoughness":{"baseColorFactor":[0.5,0.5,0.5,1.0],"metallicFactor":0.0,"roughnessFactor":0.450053632},"name":"lambert1"}],"animations":[{"channels":[{"sampler":0,"target":{"node":1,"path":"scale"}},{"sampler":1,"target":{"node":1,"path":"rotation"}},{"sampler":2,"target":{"node":1,"path":"translation"}}],"samplers":[{"input":15,"output":16},{"input":17,"output":18},{"input":19,"output":20}],"name":"All Animations"}]}